<mxfile host="app.diagrams.net" agent="Mozilla/5.0 (Windows NT 10.0; Win64; x64) AppleWebKit/537.36 (KHTML, like Gecko) Chrome/135.0.0.0 Safari/537.36 Edg/135.0.0.0" version="26.2.12">
  <diagram name="第 1 页" id="IHrRUHvAIByenZGupFI2">
    <mxGraphModel dx="2012" dy="1367" grid="1" gridSize="10" guides="1" tooltips="1" connect="1" arrows="1" fold="1" page="1" pageScale="1" pageWidth="583" pageHeight="413" math="0" shadow="0">
      <root>
        <mxCell id="0" />
        <mxCell id="1" parent="0" />
        <mxCell id="jzNYZYKTZxXaGURf93oZ-71" value="" style="rounded=1;arcSize=5;whiteSpace=wrap;html=1;fillColor=light-dark(#fef7e1, #281d00);strokeColor=light-dark(#b67a58, #6d5100);dashed=1;strokeWidth=3;dashPattern=8 8;" vertex="1" parent="1">
          <mxGeometry x="140" y="110" width="350" height="230" as="geometry" />
        </mxCell>
        <mxCell id="jzNYZYKTZxXaGURf93oZ-72" value="" style="rounded=1;arcSize=5;whiteSpace=wrap;html=1;fillColor=#fff2cc;strokeColor=light-dark(#b67b58, #6d5100);strokeWidth=1.5;" vertex="1" parent="1">
          <mxGeometry x="160" y="130" width="160" height="170" as="geometry" />
        </mxCell>
        <mxCell id="jzNYZYKTZxXaGURf93oZ-73" value="&lt;font style=&quot;font-size: 18px;&quot; face=&quot;Times New Roman&quot;&gt;动态迭代模块&lt;/font&gt;" style="text;html=1;align=center;verticalAlign=middle;resizable=0;points=[];autosize=1;strokeColor=none;fillColor=none;fontColor=light-dark(#7f6105, #69c195);fontStyle=1" vertex="1" parent="1">
          <mxGeometry x="360" y="300" width="130" height="40" as="geometry" />
        </mxCell>
        <mxCell id="jzNYZYKTZxXaGURf93oZ-74" value="" style="group" vertex="1" connectable="0" parent="1">
          <mxGeometry x="20" y="240" width="100" height="84.44999999999999" as="geometry" />
        </mxCell>
        <mxCell id="jzNYZYKTZxXaGURf93oZ-75" value="" style="rounded=1;arcSize=12;whiteSpace=wrap;html=1;fillColor=#d5e8d4;strokeColor=#82b366;align=center;verticalAlign=middle;fontFamily=Helvetica;fontSize=12;strokeWidth=2;" vertex="1" parent="jzNYZYKTZxXaGURf93oZ-74">
          <mxGeometry x="65" y="-35.55" width="30" height="120" as="geometry" />
        </mxCell>
        <mxCell id="jzNYZYKTZxXaGURf93oZ-76" value="&lt;font style=&quot;font-size: 14px;&quot; face=&quot;Times New Roman&quot;&gt;目&lt;/font&gt;&lt;div&gt;&lt;font style=&quot;font-size: 14px;&quot; face=&quot;Times New Roman&quot;&gt;标&lt;/font&gt;&lt;/div&gt;&lt;div&gt;&lt;font style=&quot;font-size: 14px;&quot; face=&quot;Times New Roman&quot;&gt;预&lt;/font&gt;&lt;/div&gt;&lt;div&gt;&lt;font style=&quot;font-size: 14px;&quot; face=&quot;Times New Roman&quot;&gt;测&lt;/font&gt;&lt;/div&gt;&lt;div&gt;&lt;font style=&quot;font-size: 14px;&quot; face=&quot;Times New Roman&quot;&gt;模&lt;/font&gt;&lt;/div&gt;&lt;div&gt;&lt;font style=&quot;font-size: 14px;&quot; face=&quot;Times New Roman&quot;&gt;块&lt;/font&gt;&lt;/div&gt;" style="text;html=1;align=center;verticalAlign=middle;resizable=0;points=[];autosize=1;strokeColor=none;fillColor=none;fontColor=light-dark(#548235, #69c195);fontStyle=1" vertex="1" parent="jzNYZYKTZxXaGURf93oZ-74">
          <mxGeometry x="60" y="-30.55000000000001" width="40" height="110" as="geometry" />
        </mxCell>
        <mxCell id="jzNYZYKTZxXaGURf93oZ-77" value="" style="shape=flexArrow;endArrow=classic;html=1;rounded=0;fillColor=light-dark(#517f31, #2566a8);strokeColor=light-dark(#517f31, #ededed);endWidth=8.045977011494253;endSize=4.83448275862069;" edge="1" parent="1">
          <mxGeometry width="50" height="50" relative="1" as="geometry">
            <mxPoint x="120" y="264.8" as="sourcePoint" />
            <mxPoint x="170" y="264.8" as="targetPoint" />
            <Array as="points">
              <mxPoint x="130" y="264.8" />
            </Array>
          </mxGeometry>
        </mxCell>
        <mxCell id="jzNYZYKTZxXaGURf93oZ-78" value="" style="group;fillColor=#d5e8d4;strokeColor=light-dark(#b67b58, #446e2c);dashed=1;dashPattern=8 8;strokeWidth=1.5;" vertex="1" connectable="0" parent="1">
          <mxGeometry x="172.5" y="250" width="135.52" height="30" as="geometry" />
        </mxCell>
        <mxCell id="jzNYZYKTZxXaGURf93oZ-79" value="交互物体概率列表" style="text;html=1;align=center;verticalAlign=middle;whiteSpace=wrap;rounded=0;" vertex="1" parent="jzNYZYKTZxXaGURf93oZ-78">
          <mxGeometry y="7.5" width="135.52" height="15" as="geometry" />
        </mxCell>
        <mxCell id="jzNYZYKTZxXaGURf93oZ-80" value="" style="group;strokeWidth=1.5;" vertex="1" connectable="0" parent="1">
          <mxGeometry x="174" y="146" width="132.52" height="30" as="geometry" />
        </mxCell>
        <mxCell id="jzNYZYKTZxXaGURf93oZ-81" value="" style="verticalLabelPosition=bottom;verticalAlign=top;html=1;shape=mxgraph.basic.rect;fillColor2=none;strokeWidth=1.5;size=20;indent=5;strokeColor=light-dark(#b67b58, #6d5100);align=center;fontFamily=Helvetica;fontSize=12;fillColor=default;" vertex="1" parent="jzNYZYKTZxXaGURf93oZ-80">
          <mxGeometry width="132.52" height="30" as="geometry" />
        </mxCell>
        <mxCell id="jzNYZYKTZxXaGURf93oZ-82" value="用户移动方向" style="text;html=1;align=center;verticalAlign=middle;whiteSpace=wrap;rounded=0;" vertex="1" parent="jzNYZYKTZxXaGURf93oZ-80">
          <mxGeometry y="7.5" width="132.52" height="15" as="geometry" />
        </mxCell>
        <mxCell id="jzNYZYKTZxXaGURf93oZ-83" value="" style="shape=cross;whiteSpace=wrap;html=1;fillColor=light-dark(#b67b58, #ededed);strokeColor=light-dark(#b67b58, #ededed);aspect=fixed;" vertex="1" parent="1">
          <mxGeometry x="231.5" y="220" width="20" height="20" as="geometry" />
        </mxCell>
        <mxCell id="jzNYZYKTZxXaGURf93oZ-84" value="&lt;font style=&quot;font-size: 14px;&quot;&gt;&lt;b style=&quot;&quot;&gt;动态特征&lt;/b&gt;&lt;/font&gt;" style="text;html=1;align=center;verticalAlign=middle;resizable=0;points=[];autosize=1;strokeColor=none;fillColor=none;" vertex="1" parent="1">
          <mxGeometry x="201.5" y="300" width="80" height="30" as="geometry" />
        </mxCell>
        <mxCell id="jzNYZYKTZxXaGURf93oZ-85" value="" style="endArrow=classic;html=1;rounded=1;strokeColor=light-dark(#b67b58, #28ab6a);align=center;verticalAlign=middle;fontFamily=Helvetica;fontSize=11;fontColor=default;labelBackgroundColor=default;curved=0;fillColor=#1ba1e2;strokeWidth=1.5;" edge="1" parent="1">
          <mxGeometry width="50" height="50" relative="1" as="geometry">
            <mxPoint x="322" y="266" as="sourcePoint" />
            <mxPoint x="357" y="266" as="targetPoint" />
          </mxGeometry>
        </mxCell>
        <mxCell id="jzNYZYKTZxXaGURf93oZ-86" value="" style="group" vertex="1" connectable="0" parent="1">
          <mxGeometry x="350" y="60" width="120.00190476190477" height="40" as="geometry" />
        </mxCell>
        <mxCell id="jzNYZYKTZxXaGURf93oZ-87" value="" style="rounded=1;arcSize=12;whiteSpace=wrap;html=1;fillColor=light-dark(#deebf7, #1d293b);strokeColor=light-dark(#2a77bc, #5c79a3);align=center;verticalAlign=middle;fontFamily=Helvetica;fontSize=12;fontColor=default;strokeWidth=2;" vertex="1" parent="jzNYZYKTZxXaGURf93oZ-86">
          <mxGeometry x="9.625238095238094" y="4.599999999999991" width="104.76190476190474" height="30.8" as="geometry" />
        </mxCell>
        <mxCell id="jzNYZYKTZxXaGURf93oZ-88" value="&lt;font style=&quot;font-size: 14px;&quot;&gt;意图推理模块&lt;/font&gt;" style="text;html=1;align=center;verticalAlign=middle;resizable=0;points=[];autosize=1;strokeColor=none;fillColor=none;fontColor=light-dark(#164673, #69c195);fontStyle=1" vertex="1" parent="jzNYZYKTZxXaGURf93oZ-86">
          <mxGeometry x="7.001904761904768" y="4.599999999999994" width="110" height="30" as="geometry" />
        </mxCell>
        <mxCell id="jzNYZYKTZxXaGURf93oZ-89" value="" style="shape=flexArrow;endArrow=classic;html=1;rounded=0;fillColor=#66B2FF;strokeColor=light-dark(#66b2ff, #ededed);endWidth=5.2;endSize=4.356;" edge="1" parent="1">
          <mxGeometry width="50" height="50" relative="1" as="geometry">
            <mxPoint x="412.5200000000001" y="100" as="sourcePoint" />
            <mxPoint x="412.5200000000001" y="140" as="targetPoint" />
            <Array as="points">
              <mxPoint x="412.52000000000055" y="111.67647058823559" />
            </Array>
          </mxGeometry>
        </mxCell>
        <mxCell id="jzNYZYKTZxXaGURf93oZ-90" value="" style="shape=flexArrow;endArrow=classic;html=1;rounded=0;fillColor=light-dark(#b67a58, #36210a);strokeColor=light-dark(#b67a58, #996500);endWidth=8.045977011494253;endSize=4.83448275862069;" edge="1" parent="1">
          <mxGeometry width="50" height="50" relative="1" as="geometry">
            <mxPoint x="469.52" y="264.9953113260331" as="sourcePoint" />
            <mxPoint x="519.52" y="264.9953113260331" as="targetPoint" />
            <Array as="points">
              <mxPoint x="479.52" y="264.9953113260331" />
            </Array>
          </mxGeometry>
        </mxCell>
        <mxCell id="jzNYZYKTZxXaGURf93oZ-91" value="&lt;b&gt;&lt;font style=&quot;color: rgb(153, 101, 0); font-size: 14px;&quot;&gt;行&lt;/font&gt;&lt;/b&gt;&lt;div&gt;&lt;b&gt;&lt;font style=&quot;color: rgb(153, 101, 0); font-size: 14px;&quot;&gt;为&lt;/font&gt;&lt;/b&gt;&lt;/div&gt;&lt;div&gt;&lt;b&gt;&lt;font style=&quot;color: rgb(153, 101, 0); font-size: 14px;&quot;&gt;目&lt;/font&gt;&lt;/b&gt;&lt;/div&gt;&lt;div&gt;&lt;b&gt;&lt;font style=&quot;color: rgb(153, 101, 0); font-size: 14px;&quot;&gt;标&lt;/font&gt;&lt;/b&gt;&lt;/div&gt;" style="rounded=1;arcSize=5;whiteSpace=wrap;html=1;fillColor=#fff2cc;strokeColor=light-dark(#b67a58, #6d5100);strokeWidth=2;" vertex="1" parent="1">
          <mxGeometry x="521.1469565217391" y="230" width="30" height="78" as="geometry" />
        </mxCell>
        <mxCell id="jzNYZYKTZxXaGURf93oZ-92" value="" style="group;strokeWidth=1.5;" vertex="1" connectable="0" parent="1">
          <mxGeometry x="360" y="251" width="105.52" height="30" as="geometry" />
        </mxCell>
        <mxCell id="jzNYZYKTZxXaGURf93oZ-93" value="" style="verticalLabelPosition=bottom;verticalAlign=top;html=1;shape=mxgraph.basic.rect;fillColor2=none;strokeWidth=1.5;size=20;indent=5;strokeColor=light-dark(#b67b58, #6d5100);align=center;fontFamily=Helvetica;fontSize=12;fillColor=light-dark(#fff2cc, #ededed);" vertex="1" parent="jzNYZYKTZxXaGURf93oZ-92">
          <mxGeometry width="105.52000000000001" height="30" as="geometry" />
        </mxCell>
        <mxCell id="jzNYZYKTZxXaGURf93oZ-94" value="转移方程" style="text;html=1;align=center;verticalAlign=middle;whiteSpace=wrap;rounded=0;" vertex="1" parent="jzNYZYKTZxXaGURf93oZ-92">
          <mxGeometry y="7.5" width="105.52000000000001" height="15" as="geometry" />
        </mxCell>
        <mxCell id="jzNYZYKTZxXaGURf93oZ-95" value="" style="endArrow=classic;html=1;rounded=1;strokeColor=light-dark(#b67b58, #28ab6a);align=center;verticalAlign=middle;fontFamily=Helvetica;fontSize=11;fontColor=default;labelBackgroundColor=default;curved=0;fillColor=#1ba1e2;strokeWidth=1.5;" edge="1" parent="1">
          <mxGeometry width="50" height="50" relative="1" as="geometry">
            <mxPoint x="412.59000000000003" y="230" as="sourcePoint" />
            <mxPoint x="412.5899999999999" y="250" as="targetPoint" />
          </mxGeometry>
        </mxCell>
        <mxCell id="jzNYZYKTZxXaGURf93oZ-96" value="" style="group;strokeWidth=1.5;" vertex="1" connectable="0" parent="1">
          <mxGeometry x="174" y="184" width="132.52" height="30" as="geometry" />
        </mxCell>
        <mxCell id="jzNYZYKTZxXaGURf93oZ-97" value="" style="verticalLabelPosition=bottom;verticalAlign=top;html=1;shape=mxgraph.basic.rect;fillColor2=none;strokeWidth=1.5;size=20;indent=5;strokeColor=light-dark(#b67b58, #6d5100);align=center;fontFamily=Helvetica;fontSize=12;fillColor=default;" vertex="1" parent="jzNYZYKTZxXaGURf93oZ-96">
          <mxGeometry width="132.52" height="30" as="geometry" />
        </mxCell>
        <mxCell id="jzNYZYKTZxXaGURf93oZ-98" value="用户与物体距离" style="text;html=1;align=center;verticalAlign=middle;whiteSpace=wrap;rounded=0;" vertex="1" parent="jzNYZYKTZxXaGURf93oZ-96">
          <mxGeometry y="7.5" width="132.52" height="15" as="geometry" />
        </mxCell>
        <mxCell id="jzNYZYKTZxXaGURf93oZ-99" value="" style="group;strokeWidth=8;" vertex="1" connectable="0" parent="1">
          <mxGeometry x="360" y="199" width="105.52" height="30" as="geometry" />
        </mxCell>
        <mxCell id="jzNYZYKTZxXaGURf93oZ-100" value="" style="verticalLabelPosition=bottom;verticalAlign=top;html=1;shape=mxgraph.basic.rect;fillColor2=none;strokeWidth=1.5;size=20;indent=5;strokeColor=light-dark(#b67b58, #6d5100);align=center;fontFamily=Helvetica;fontSize=12;fillColor=default;" vertex="1" parent="jzNYZYKTZxXaGURf93oZ-99">
          <mxGeometry width="105.52000000000001" height="30" as="geometry" />
        </mxCell>
        <mxCell id="jzNYZYKTZxXaGURf93oZ-101" value="特征权重" style="text;html=1;align=center;verticalAlign=middle;whiteSpace=wrap;rounded=0;" vertex="1" parent="jzNYZYKTZxXaGURf93oZ-99">
          <mxGeometry y="7.5" width="105.52000000000001" height="15" as="geometry" />
        </mxCell>
        <mxCell id="jzNYZYKTZxXaGURf93oZ-102" value="" style="group;strokeWidth=8;" vertex="1" connectable="0" parent="1">
          <mxGeometry x="360" y="146" width="105.52" height="30" as="geometry" />
        </mxCell>
        <mxCell id="jzNYZYKTZxXaGURf93oZ-103" value="" style="verticalLabelPosition=bottom;verticalAlign=top;html=1;shape=mxgraph.basic.rect;fillColor2=none;strokeWidth=1.5;size=20;indent=5;strokeColor=light-dark(#b67b58, #5c79a3);align=center;fontFamily=Helvetica;fontSize=12;fillColor=#dae8fc;dashed=1;dashPattern=8 8;" vertex="1" parent="jzNYZYKTZxXaGURf93oZ-102">
          <mxGeometry width="105.52000000000001" height="30" as="geometry" />
        </mxCell>
        <mxCell id="jzNYZYKTZxXaGURf93oZ-104" value="推理意图" style="text;html=1;align=center;verticalAlign=middle;whiteSpace=wrap;rounded=0;" vertex="1" parent="jzNYZYKTZxXaGURf93oZ-102">
          <mxGeometry y="7.5" width="105.52000000000001" height="15" as="geometry" />
        </mxCell>
        <mxCell id="jzNYZYKTZxXaGURf93oZ-105" value="" style="endArrow=classic;html=1;rounded=1;strokeColor=light-dark(#b67b58, #28ab6a);align=center;verticalAlign=middle;fontFamily=Helvetica;fontSize=11;fontColor=default;labelBackgroundColor=default;curved=0;fillColor=#1ba1e2;strokeWidth=1.5;" edge="1" parent="1">
          <mxGeometry width="50" height="50" relative="1" as="geometry">
            <mxPoint x="412.59000000000003" y="178" as="sourcePoint" />
            <mxPoint x="412.5899999999999" y="198" as="targetPoint" />
          </mxGeometry>
        </mxCell>
      </root>
    </mxGraphModel>
  </diagram>
</mxfile>
